<svg width="47" height="68" viewBox="0 0 47 68" fill="none" xmlns="http://www.w3.org/2000/svg">
<g clip-path="url(#clip0_1_492)">
<path d="M23.4714 67.3307L4.34428 61.9629L0.0817871 13.6339H46.9184L42.6515 61.9555L23.4714 67.3307Z" fill="#264DE4"/>
<path d="M38.9984 58.8785L42.6446 17.5854H23.5V63.222L38.9984 58.8785Z" fill="#2965F1"/>
<path d="M9.85339 35.51L10.3788 41.4374H23.5001V35.51H9.85339ZM8.79736 23.5129L9.33034 29.4403H23.5001V23.5129H8.79736ZM23.5001 50.9041L23.4744 50.9109L16.9443 49.1285L16.5268 44.4012H10.6408L11.4622 53.708L23.4731 57.0785L23.5001 57.071V50.9041Z" fill="#EBEBEB"/>
<path d="M11.1045 0.5H18.2059V3.50219H14.0743V6.50439H18.2063V9.5064H11.1045V0.5ZM19.6264 0.5H26.728V3.11059H22.5962V3.63267H26.728V9.63706H19.6265V6.89562H23.7583V6.37354H19.6262V0.5H19.6264ZM28.1484 0.5H35.25V3.11059H31.1182V3.63267H35.25V9.63706H28.1484V6.89562H32.2802V6.37354H28.1486V0.5H28.1484Z" fill="#62FBD7"/>
<path d="M37.1094 35.51L38.1678 23.5129H23.4799V29.4403H31.742L31.2085 35.51H23.4799V41.4374H30.7001L30.0193 49.1248L23.4797 50.9091V57.0757L35.5002 53.708L35.5883 52.7066L36.9664 37.1017L37.1094 35.51Z" fill="white"/>
</g>
<defs>
<clipPath id="clip0_1_492">
<rect width="47" height="67" fill="white" transform="translate(0 0.5)"/>
</clipPath>
</defs>
</svg>
