<svg width="24" height="24" viewBox="0 0 24 24" fill="none" xmlns="http://www.w3.org/2000/svg">
<path fill-rule="evenodd" clip-rule="evenodd" d="M12 0.25C5.37 0.25 0 5.62 0 12.25C0 17.56 3.435 22.045 8.205 23.635C8.805 23.74 9.03 23.38 9.03 23.065C9.03 22.78 9.015 21.835 9.015 20.83C6 21.385 5.22 20.095 4.98 19.42C4.845 19.075 4.26 18.01 3.75 17.725C3.33 17.5 2.73 16.945 3.735 16.93C4.68 16.915 5.355 17.8 5.58 18.16C6.66 19.975 8.385 19.465 9.075 19.15C9.18 18.37 9.495 17.845 9.84 17.545C7.17 17.245 4.38 16.21 4.38 11.62C4.38 10.315 4.845 9.235 5.61 8.395C5.49 8.095 5.07 6.865 5.73 5.215C5.73 5.215 6.735 4.9 9.03 6.445C9.99 6.175 11.01 6.04 12.03 6.04C13.05 6.04 14.07 6.175 15.03 6.445C17.325 4.885 18.33 5.215 18.33 5.215C18.99 6.865 18.57 8.095 18.45 8.395C19.215 9.235 19.68 10.3 19.68 11.62C19.68 16.225 16.875 17.245 14.205 17.545C14.64 17.92 15.015 18.64 15.015 19.765C15.015 21.37 15 22.66 15 23.065C15 23.38 15.225 23.755 15.825 23.635C18.2072 22.8307 20.2772 21.2997 21.7437 19.2574C23.2101 17.215 23.9993 14.7643 24 12.25C24 5.62 18.63 0.25 12 0.25Z" fill="black"/>
</svg>
