<svg width="47" height="68" viewBox="0 0 47 68" fill="none" xmlns="http://www.w3.org/2000/svg">
<g clip-path="url(#clip0_1_486)">
<path d="M46.9184 13.6339L42.6515 61.9555L23.4714 67.3307L4.34428 61.9629L0.0817871 13.6339H46.9184Z" fill="#E44D26"/>
<path d="M23.5 63.222L38.9984 58.8785L42.6446 17.5854H23.5V63.222Z" fill="#F16529"/>
<path d="M15.2053 29.4403H23.5001V23.5129H8.79736L8.93763 25.1031L10.3788 41.4374H23.5001V35.51H15.7412L15.2053 29.4403ZM16.5268 44.4011H10.6408L11.4622 53.708L23.4731 57.0784L23.5001 57.071V50.904L23.4744 50.9109L16.9443 49.1284L16.5268 44.4011Z" fill="#EBEBEB"/>
<path d="M4.43921 0.5H7.41894V3.47602H10.1448V0.5H13.1247V9.51215H10.1449V6.49437H7.41912V9.51215H4.43939L4.43921 0.5ZM17.0429 3.48865H14.4201V0.5H22.6477V3.48865H20.0232V9.51215H17.0435L17.0429 3.48865ZM23.9534 0.5H27.0603L28.9716 3.66663L30.8809 0.5H33.9892V9.51215H31.0216V5.04524L28.9716 8.24954H28.9201L26.8689 5.04524V9.51215H23.9534V0.5ZM35.4721 0.5H38.4527V6.53334H42.643V9.51215H35.4719L35.4721 0.5Z" fill="#62FBD7"/>
<path d="M23.4799 41.4374H30.7001L30.0193 49.1247L23.4797 50.909V57.0756L35.5002 53.708L35.5883 52.7065L36.9663 37.1017L37.1094 35.51H23.4799V41.4374ZM23.4799 29.4258V29.4403H37.6429L37.7604 28.1081L38.0277 25.1031L38.1678 23.5129H23.4799V29.426V29.4258Z" fill="white"/>
</g>
<defs>
<clipPath id="clip0_1_486">
<rect width="47" height="67" fill="white" transform="translate(0 0.5)"/>
</clipPath>
</defs>
</svg>
