<svg width="59" height="60" viewBox="0 0 59 60" fill="none" xmlns="http://www.w3.org/2000/svg">
<g clip-path="url(#clip0_1_498)">
<path d="M0 0H59V60H0V0Z" fill="#F7DF1E"/>
<path d="M15.5134 50.1403L20.0283 47.3616C20.8995 48.9321 21.6918 50.261 23.5925 50.261C25.4144 50.261 26.5632 49.5363 26.5632 46.7173V27.5459H32.1076V46.797C32.1076 52.6369 28.7414 55.2952 23.8301 55.2952C19.3947 55.2952 16.8202 52.9591 15.5132 50.1398M35.1192 49.5361L39.6336 46.878C40.8221 48.8517 42.3667 50.3016 45.0992 50.3016C47.3967 50.3016 48.8616 49.1334 48.8616 47.5223C48.8616 45.5892 47.3566 44.9044 44.8219 43.777L43.4361 43.1723C39.4358 41.441 36.7825 39.266 36.7825 34.6746C36.7825 30.4455 39.9507 27.2234 44.9014 27.2234C48.4262 27.2234 50.9609 28.4721 52.7825 31.7344L48.4654 34.5539C47.5147 32.8221 46.4854 32.1375 44.9012 32.1375C43.2773 32.1375 42.2476 33.1847 42.2476 34.5539C42.2476 36.2454 43.2773 36.9305 45.6534 37.9777L47.0395 38.5816C51.7526 40.6359 54.4059 42.7301 54.4059 47.442C54.4059 52.5171 50.4852 55.2959 45.2178 55.2959C40.0694 55.2959 36.7426 52.7988 35.1189 49.5363" fill="black"/>
</g>
<defs>
<clipPath id="clip0_1_498">
<rect width="59" height="60" fill="white"/>
</clipPath>
</defs>
</svg>
