<svg width="237" height="32" viewBox="0 0 237 32" fill="none" xmlns="http://www.w3.org/2000/svg">
<path d="M9.82448 13.0158L4.46219 17.4838L9.82448 21.9519C10.0023 22.0977 10.1495 22.2772 10.2577 22.4801C10.3658 22.683 10.4327 22.9053 10.4544 23.1342C10.4762 23.3631 10.4525 23.5941 10.3846 23.8137C10.3167 24.0334 10.2059 24.2374 10.0588 24.4141C9.91161 24.5908 9.73093 24.7366 9.52715 24.8431C9.32338 24.9496 9.10053 25.0147 8.87147 25.0346C8.64241 25.0546 8.41167 25.029 8.19255 24.9593C7.97343 24.8896 7.77027 24.7773 7.59479 24.6287L0.627013 18.8222C0.43077 18.6588 0.272878 18.4541 0.164523 18.2228C0.0561672 17.9916 0 17.7393 0 17.4838C0 17.2284 0.0561672 16.9761 0.164523 16.7449C0.272878 16.5136 0.43077 16.3089 0.627013 16.1455L7.59479 10.339C7.95025 10.0477 8.40643 9.90864 8.86394 9.95218C9.32146 9.99571 9.74323 10.2183 10.0374 10.5714C10.3315 10.9245 10.4742 11.3796 10.4343 11.8374C10.3944 12.2953 10.1752 12.7188 9.82448 13.0158ZM35.373 16.1455L28.4052 10.339C28.2297 10.1904 28.0266 10.0781 27.8074 10.0084C27.5883 9.93873 27.3576 9.91314 27.1285 9.93309C26.8995 9.95304 26.6766 10.0181 26.4728 10.1246C26.2691 10.2311 26.0884 10.3769 25.9412 10.5536C25.7941 10.7302 25.6833 10.9343 25.6154 11.154C25.5475 11.3736 25.5238 11.6046 25.5456 11.8335C25.5673 12.0624 25.6342 12.2847 25.7423 12.4876C25.8505 12.6905 25.9977 12.87 26.1755 13.0158L31.5378 17.4838L26.1755 21.9519C25.9977 22.0977 25.8505 22.2772 25.7423 22.4801C25.6342 22.683 25.5673 22.9053 25.5456 23.1342C25.5238 23.3631 25.5475 23.5941 25.6154 23.8137C25.6833 24.0334 25.7941 24.2374 25.9412 24.4141C26.0884 24.5908 26.2691 24.7366 26.4728 24.8431C26.6766 24.9496 26.8995 25.0147 27.1285 25.0346C27.3576 25.0546 27.5883 25.029 27.8074 24.9593C28.0266 24.8896 28.2297 24.7773 28.4052 24.6287L35.373 18.8222C35.5692 18.6588 35.7271 18.4541 35.8355 18.2228C35.9438 17.9916 36 17.7393 36 17.4838C36 17.2284 35.9438 16.9761 35.8355 16.7449C35.7271 16.5136 35.5692 16.3089 35.373 16.1455ZM23.2403 3.07218C23.0253 2.99398 22.797 2.95891 22.5684 2.96897C22.3398 2.97903 22.1155 3.03403 21.9081 3.13081C21.7008 3.2276 21.5146 3.36429 21.3601 3.53306C21.2056 3.70183 21.0859 3.89939 21.0078 4.11444L11.7174 29.6629C11.5599 30.097 11.5812 30.5759 11.7767 30.9942C11.9721 31.4126 12.3257 31.7363 12.7597 31.8941C12.9502 31.9644 13.1517 32.0003 13.3548 32C13.7125 32.0001 14.0615 31.8901 14.3544 31.6849C14.6474 31.4797 14.87 31.1894 14.9922 30.8533L24.2826 5.30477C24.3608 5.08974 24.3959 4.86141 24.3858 4.63283C24.3758 4.40425 24.3208 4.17989 24.224 3.97256C24.1272 3.76524 23.9905 3.57901 23.8217 3.42452C23.653 3.27003 23.4554 3.1503 23.2403 3.07218Z" fill="white"/>
<path d="M52.6719 20.9688C52.6719 23.625 52.1094 25.6927 50.9844 27.1719C49.8594 28.6406 48.3542 29.375 46.4688 29.375C45.5938 29.375 44.875 29.25 44.3125 29V26.4062C44.875 26.8125 45.6042 27.0156 46.5 27.0156C48.8646 27.0156 50.0469 25.0104 50.0469 21V6.59375H52.6719V20.9688ZM69.4844 29H66.9219V26.5H66.8594C65.7448 28.4167 64.1042 29.375 61.9375 29.375C60.3438 29.375 59.0938 28.9531 58.1875 28.1094C57.2917 27.2656 56.8438 26.1458 56.8438 24.75C56.8438 21.7604 58.6042 20.0208 62.125 19.5312L66.9219 18.8594C66.9219 16.1406 65.8229 14.7812 63.625 14.7812C61.6979 14.7812 59.9583 15.4375 58.4062 16.75V14.125C59.9792 13.125 61.7917 12.625 63.8438 12.625C67.6042 12.625 69.4844 14.6146 69.4844 18.5938V29ZM66.9219 20.9062L63.0625 21.4375C61.875 21.6042 60.9792 21.901 60.375 22.3281C59.7708 22.7448 59.4688 23.4896 59.4688 24.5625C59.4688 25.3438 59.7448 25.9844 60.2969 26.4844C60.8594 26.974 61.6042 27.2188 62.5312 27.2188C63.8021 27.2188 64.849 26.776 65.6719 25.8906C66.5052 24.9948 66.9219 23.8646 66.9219 22.5V20.9062ZM97.0312 29H94.4688V19.8125C94.4688 18.0417 94.1927 16.7604 93.6406 15.9688C93.099 15.1771 92.1823 14.7812 90.8906 14.7812C89.7969 14.7812 88.8646 15.2812 88.0938 16.2812C87.3333 17.2812 86.9531 18.4792 86.9531 19.875V29H84.3906V19.5C84.3906 16.3542 83.1771 14.7812 80.75 14.7812C79.625 14.7812 78.6979 15.2552 77.9688 16.2031C77.2396 17.1406 76.875 18.3646 76.875 19.875V29H74.3125V13H76.875V15.5312H76.9375C78.0729 13.5938 79.7292 12.625 81.9062 12.625C83 12.625 83.9531 12.9323 84.7656 13.5469C85.5781 14.151 86.1354 14.9479 86.4375 15.9375C87.625 13.7292 89.3958 12.625 91.75 12.625C95.2708 12.625 97.0312 14.7969 97.0312 19.1406V29ZM114.734 21.6406H103.438C103.479 23.4219 103.958 24.7969 104.875 25.7656C105.792 26.7344 107.052 27.2188 108.656 27.2188C110.458 27.2188 112.115 26.625 113.625 25.4375V27.8438C112.219 28.8646 110.359 29.375 108.047 29.375C105.786 29.375 104.01 28.651 102.719 27.2031C101.427 25.7448 100.781 23.6979 100.781 21.0625C100.781 18.5729 101.484 16.5469 102.891 14.9844C104.307 13.4115 106.062 12.625 108.156 12.625C110.25 12.625 111.87 13.3021 113.016 14.6562C114.161 16.0104 114.734 17.8906 114.734 20.2969V21.6406ZM112.109 19.4688C112.099 17.9896 111.74 16.8385 111.031 16.0156C110.333 15.1927 109.359 14.7812 108.109 14.7812C106.901 14.7812 105.875 15.2135 105.031 16.0781C104.188 16.9427 103.667 18.0729 103.469 19.4688H112.109ZM117.656 28.4219V25.6719C119.052 26.7031 120.589 27.2188 122.266 27.2188C124.516 27.2188 125.641 26.4688 125.641 24.9688C125.641 24.5417 125.542 24.1823 125.344 23.8906C125.156 23.5885 124.896 23.3229 124.562 23.0938C124.24 22.8646 123.854 22.6615 123.406 22.4844C122.969 22.2969 122.495 22.1042 121.984 21.9062C121.276 21.625 120.651 21.3438 120.109 21.0625C119.578 20.7708 119.13 20.4479 118.766 20.0938C118.411 19.7292 118.141 19.3177 117.953 18.8594C117.776 18.401 117.688 17.8646 117.688 17.25C117.688 16.5 117.859 15.8385 118.203 15.2656C118.547 14.6823 119.005 14.1979 119.578 13.8125C120.151 13.4167 120.802 13.1198 121.531 12.9219C122.271 12.724 123.031 12.625 123.812 12.625C125.198 12.625 126.438 12.8646 127.531 13.3438V15.9375C126.354 15.1667 125 14.7812 123.469 14.7812C122.99 14.7812 122.557 14.8385 122.172 14.9531C121.786 15.0573 121.453 15.2083 121.172 15.4062C120.901 15.6042 120.688 15.8438 120.531 16.125C120.385 16.3958 120.312 16.6979 120.312 17.0312C120.312 17.4479 120.385 17.7969 120.531 18.0781C120.688 18.3594 120.911 18.6094 121.203 18.8281C121.495 19.0469 121.849 19.2448 122.266 19.4219C122.682 19.599 123.156 19.7917 123.688 20C124.396 20.2708 125.031 20.5521 125.594 20.8438C126.156 21.125 126.635 21.4479 127.031 21.8125C127.427 22.1667 127.729 22.5781 127.938 23.0469C128.156 23.5156 128.266 24.0729 128.266 24.7188C128.266 25.5104 128.089 26.1979 127.734 26.7812C127.391 27.3646 126.927 27.849 126.344 28.2344C125.76 28.6198 125.089 28.9062 124.328 29.0938C123.568 29.2812 122.771 29.375 121.938 29.375C120.292 29.375 118.865 29.0573 117.656 28.4219ZM141.344 29V6.59375H147.531C155.427 6.59375 159.375 10.2344 159.375 17.5156C159.375 20.974 158.276 23.7552 156.078 25.8594C153.891 27.9531 150.958 29 147.281 29H141.344ZM143.969 8.96875V26.625H147.312C150.25 26.625 152.536 25.8385 154.172 24.2656C155.807 22.6927 156.625 20.4635 156.625 17.5781C156.625 11.8385 153.573 8.96875 147.469 8.96875H143.969ZM174.891 29H172.328V26.5H172.266C171.151 28.4167 169.51 29.375 167.344 29.375C165.75 29.375 164.5 28.9531 163.594 28.1094C162.698 27.2656 162.25 26.1458 162.25 24.75C162.25 21.7604 164.01 20.0208 167.531 19.5312L172.328 18.8594C172.328 16.1406 171.229 14.7812 169.031 14.7812C167.104 14.7812 165.365 15.4375 163.812 16.75V14.125C165.385 13.125 167.198 12.625 169.25 12.625C173.01 12.625 174.891 14.6146 174.891 18.5938V29ZM172.328 20.9062L168.469 21.4375C167.281 21.6042 166.385 21.901 165.781 22.3281C165.177 22.7448 164.875 23.4896 164.875 24.5625C164.875 25.3438 165.151 25.9844 165.703 26.4844C166.266 26.974 167.01 27.2188 167.938 27.2188C169.208 27.2188 170.255 26.776 171.078 25.8906C171.911 24.9948 172.328 23.8646 172.328 22.5V20.9062ZM178.75 28.4219V25.6719C180.146 26.7031 181.682 27.2188 183.359 27.2188C185.609 27.2188 186.734 26.4688 186.734 24.9688C186.734 24.5417 186.635 24.1823 186.438 23.8906C186.25 23.5885 185.99 23.3229 185.656 23.0938C185.333 22.8646 184.948 22.6615 184.5 22.4844C184.062 22.2969 183.589 22.1042 183.078 21.9062C182.37 21.625 181.745 21.3438 181.203 21.0625C180.672 20.7708 180.224 20.4479 179.859 20.0938C179.505 19.7292 179.234 19.3177 179.047 18.8594C178.87 18.401 178.781 17.8646 178.781 17.25C178.781 16.5 178.953 15.8385 179.297 15.2656C179.641 14.6823 180.099 14.1979 180.672 13.8125C181.245 13.4167 181.896 13.1198 182.625 12.9219C183.365 12.724 184.125 12.625 184.906 12.625C186.292 12.625 187.531 12.8646 188.625 13.3438V15.9375C187.448 15.1667 186.094 14.7812 184.562 14.7812C184.083 14.7812 183.651 14.8385 183.266 14.9531C182.88 15.0573 182.547 15.2083 182.266 15.4062C181.995 15.6042 181.781 15.8438 181.625 16.125C181.479 16.3958 181.406 16.6979 181.406 17.0312C181.406 17.4479 181.479 17.7969 181.625 18.0781C181.781 18.3594 182.005 18.6094 182.297 18.8281C182.589 19.0469 182.943 19.2448 183.359 19.4219C183.776 19.599 184.25 19.7917 184.781 20C185.49 20.2708 186.125 20.5521 186.688 20.8438C187.25 21.125 187.729 21.4479 188.125 21.8125C188.521 22.1667 188.823 22.5781 189.031 23.0469C189.25 23.5156 189.359 24.0729 189.359 24.7188C189.359 25.5104 189.182 26.1979 188.828 26.7812C188.484 27.3646 188.021 27.849 187.438 28.2344C186.854 28.6198 186.182 28.9062 185.422 29.0938C184.661 29.2812 183.865 29.375 183.031 29.375C181.385 29.375 179.958 29.0573 178.75 28.4219ZM206.594 29H204.031V19.7812C204.031 16.4479 202.792 14.7812 200.312 14.7812C199.062 14.7812 198.01 15.2656 197.156 16.2344C196.302 17.1927 195.875 18.4271 195.875 19.9375V29H193.312V5.3125H195.875V15.6562H195.938C197.167 13.6354 198.917 12.625 201.188 12.625C204.792 12.625 206.594 14.7969 206.594 19.1406V29ZM224.297 21.6406H213C213.042 23.4219 213.521 24.7969 214.438 25.7656C215.354 26.7344 216.615 27.2188 218.219 27.2188C220.021 27.2188 221.677 26.625 223.188 25.4375V27.8438C221.781 28.8646 219.922 29.375 217.609 29.375C215.349 29.375 213.573 28.651 212.281 27.2031C210.99 25.7448 210.344 23.6979 210.344 21.0625C210.344 18.5729 211.047 16.5469 212.453 14.9844C213.87 13.4115 215.625 12.625 217.719 12.625C219.812 12.625 221.432 13.3021 222.578 14.6562C223.724 16.0104 224.297 17.8906 224.297 20.2969V21.6406ZM221.672 19.4688C221.661 17.9896 221.302 16.8385 220.594 16.0156C219.896 15.1927 218.922 14.7812 217.672 14.7812C216.464 14.7812 215.438 15.2135 214.594 16.0781C213.75 16.9427 213.229 18.0729 213.031 19.4688H221.672ZM236.531 15.5938C236.083 15.25 235.438 15.0781 234.594 15.0781C233.5 15.0781 232.583 15.5938 231.844 16.625C231.115 17.6562 230.75 19.0625 230.75 20.8438V29H228.188V13H230.75V16.2969H230.812C231.177 15.1719 231.734 14.2969 232.484 13.6719C233.234 13.0365 234.073 12.7188 235 12.7188C235.667 12.7188 236.177 12.7917 236.531 12.9375V15.5938Z" fill="white"/>
</svg>
