<svg width="56" height="56" viewBox="0 0 56 56" fill="none" xmlns="http://www.w3.org/2000/svg">
<g clip-path="url(#clip0_1_483)">
<path d="M28.2371 0.0158081C42.4191 0.0158081 41.5336 6.19008 41.5336 6.19008L41.5179 12.5868H27.9842V14.5073H46.8932C46.8932 14.5073 55.9683 13.474 55.9683 27.8397C55.9683 42.2058 48.0473 41.6963 48.0473 41.6963H43.3201V35.0299C43.3201 35.0299 43.575 27.0779 35.5256 27.0779H22.1027C22.1027 27.0779 14.5613 27.2002 14.5613 19.7607V7.46007C14.5613 7.46007 13.4159 0.0158081 28.2371 0.0158081ZM35.6995 4.31749C35.3797 4.3172 35.063 4.38022 34.7675 4.50295C34.472 4.62569 34.2035 4.80572 33.9773 5.03274C33.7512 5.25977 33.5719 5.52933 33.4496 5.82601C33.3273 6.12269 33.2646 6.44066 33.2649 6.76172C33.2646 7.08278 33.3273 7.40075 33.4496 7.69743C33.5719 7.99411 33.7512 8.26367 33.9773 8.4907C34.2035 8.71773 34.472 8.89776 34.7675 9.02049C35.063 9.14322 35.3797 9.20624 35.6995 9.20596C36.0194 9.20624 36.3361 9.14322 36.6316 9.02049C36.9271 8.89776 37.1956 8.71773 37.4218 8.4907C37.6479 8.26367 37.8272 7.99411 37.9495 7.69743C38.0717 7.40075 38.1345 7.08278 38.1342 6.76172C38.1345 6.44066 38.0717 6.12269 37.9495 5.82601C37.8272 5.52933 37.6479 5.25977 37.4218 5.03274C37.1956 4.80572 36.9271 4.62569 36.6316 4.50295C36.3361 4.38022 36.0194 4.3172 35.6995 4.31749Z" fill="url(#paint0_linear_1_483)"/>
<path d="M27.8345 55.8081C13.6525 55.8081 14.538 49.6338 14.538 49.6338L14.5537 43.2373H28.0876V41.3168H9.17858C9.17858 41.3168 0.103523 42.3501 0.103523 27.984C0.103523 13.6181 8.02446 14.1276 8.02446 14.1276H12.7516V20.7938C12.7516 20.7938 12.4968 28.7458 20.5461 28.7458H33.9691C33.9691 28.7458 41.5105 28.6235 41.5105 36.0631V48.364C41.5105 48.364 42.6556 55.8081 27.8347 55.8081H27.8345ZM20.372 51.5068C20.6918 51.5071 21.0086 51.4441 21.3041 51.3214C21.5996 51.1986 21.8681 51.0186 22.0942 50.7916C22.3204 50.5645 22.4997 50.295 22.622 49.9983C22.7442 49.7016 22.807 49.3837 22.8067 49.0626C22.807 48.7415 22.7443 48.4235 22.622 48.1268C22.4998 47.8301 22.3205 47.5605 22.0943 47.3335C21.8682 47.1064 21.5997 46.9264 21.3041 46.8036C21.0086 46.6809 20.6918 46.6178 20.372 46.6181C20.0522 46.6178 19.7355 46.6809 19.44 46.8036C19.1444 46.9263 18.8759 47.1064 18.6498 47.3334C18.4237 47.5604 18.2443 47.83 18.1221 48.1267C17.9998 48.4233 17.937 48.7413 17.9373 49.0624C17.937 49.3834 17.9998 49.7014 18.1221 49.9981C18.2443 50.2948 18.4237 50.5643 18.6498 50.7914C18.8759 51.0184 19.1444 51.1984 19.44 51.3211C19.7355 51.4439 20.0522 51.5069 20.372 51.5066V51.5068Z" fill="url(#paint1_linear_1_483)"/>
</g>
<defs>
<linearGradient id="paint0_linear_1_483" x1="50.5997" y1="5.03399" x2="22.8075" y2="32.4414" gradientUnits="userSpaceOnUse">
<stop stop-color="#387EB8"/>
<stop offset="1" stop-color="#366994"/>
</linearGradient>
<linearGradient id="paint1_linear_1_483" x1="33.6068" y1="22.7032" x2="3.76655" y2="50.802" gradientUnits="userSpaceOnUse">
<stop stop-color="#FFE052"/>
<stop offset="1" stop-color="#FFC331"/>
</linearGradient>
<clipPath id="clip0_1_483">
<rect width="56" height="56" fill="white" transform="matrix(-1 0 0 1 56 0)"/>
</clipPath>
</defs>
</svg>
