<svg width="59" height="54" viewBox="0 0 59 54" fill="none" xmlns="http://www.w3.org/2000/svg">
<path d="M48.5098 17.5025C47.8819 17.2809 47.2486 17.0756 46.6107 16.8868C46.7179 16.4363 46.8165 15.9913 46.9041 15.5541C48.3417 8.37497 47.4019 2.59129 44.1917 0.68703C41.1138 -1.13852 36.0801 0.76503 30.9964 5.31634C30.4954 5.7657 30.0055 6.228 29.5272 6.70281C29.207 6.38708 28.8811 6.07747 28.5498 5.77415C23.2218 0.907756 17.8814 -1.14326 14.6746 0.766453C11.5995 2.59769 10.6889 8.03476 11.9832 14.8386C12.112 15.5125 12.2574 16.1828 12.4193 16.8491C11.6633 17.07 10.9339 17.3052 10.2358 17.5556C3.98918 19.796 0 23.307 0 26.9489C0 30.7102 4.28257 34.483 10.7887 36.7706C11.3162 36.9553 11.848 37.1264 12.3838 37.2839C12.2098 38.0015 12.0553 38.7239 11.9205 39.4504C10.6866 46.1361 11.6502 51.4447 14.717 53.2643C17.8846 55.1435 23.2011 53.2122 28.3776 48.557C28.7974 48.1786 29.2079 47.7894 29.6088 47.3898C30.1268 47.904 30.6586 48.4032 31.2036 48.8868C36.2182 53.3255 41.1705 55.1179 44.2343 53.2932C47.3989 51.4087 48.4275 45.7058 47.0921 38.7676C46.9869 38.224 46.869 37.6831 46.7384 37.1454C47.1117 37.0316 47.4782 36.9145 47.8354 36.7926C54.5992 34.4875 59 30.7605 59 26.9489C59 23.2938 54.882 19.7591 48.5098 17.5025ZM47.0428 34.3317C46.7202 34.4415 46.3892 34.5474 46.0518 34.6506C45.3051 32.2188 44.2975 29.6332 43.0642 26.9615C44.241 24.3535 45.2099 21.8008 45.9356 19.3849C46.5392 19.5646 47.1249 19.7541 47.6895 19.9539C53.1493 21.8876 56.4796 24.7461 56.4796 26.9489C56.4796 29.2951 52.8829 32.3409 47.0428 34.3317ZM44.6197 39.2711C45.2101 42.339 45.2943 45.1129 44.9031 47.2815C44.5519 49.2301 43.8453 50.5291 42.9714 51.0495C41.1122 52.1567 37.1359 50.7176 32.8476 46.9214C32.3406 46.4717 31.8459 46.0076 31.364 45.5297C33.0266 43.6593 34.6881 41.485 36.3097 39.0701C39.1619 38.8098 41.8566 38.3839 44.3002 37.8029C44.418 38.2896 44.5245 38.7792 44.6197 39.2711ZM20.1144 50.8582C18.2978 51.518 16.851 51.5369 15.9763 51.0182C14.1153 49.9141 13.3416 45.6515 14.3969 39.934C14.5224 39.2584 14.666 38.5865 14.8277 37.919C17.2444 38.4691 19.9194 38.8645 22.7784 39.103C24.411 41.466 26.1204 43.638 27.8432 45.5399C27.477 45.9043 27.1023 46.2594 26.7192 46.6049C24.4299 48.6632 22.1361 50.1237 20.1144 50.8582ZM11.6041 34.3172C8.72716 33.3056 6.35126 31.991 4.72277 30.5564C3.25929 29.2673 2.52064 27.9873 2.52064 26.9489C2.52064 24.7388 5.72346 21.9198 11.0655 20.004C11.7138 19.7716 12.3923 19.5523 13.0964 19.3465C13.8348 21.817 14.8032 24.4 15.9719 27.0119C14.788 29.6626 13.8058 32.2868 13.0602 34.7864C12.5712 34.6423 12.0857 34.4859 11.6041 34.3172ZM14.4568 14.3405C13.3481 8.51129 14.0844 4.11409 15.9376 3.01046C17.9113 1.83499 22.276 3.51094 26.8763 7.71303C27.1763 7.98767 27.4715 8.26787 27.7616 8.55349C26.0473 10.4471 24.3536 12.6029 22.7355 14.9519C19.9607 15.2165 17.3045 15.6414 14.8625 16.2106C14.712 15.5909 14.5768 14.9672 14.4568 14.3405ZM39.9068 20.8053C39.33 19.7804 38.7318 18.7683 38.1126 17.7699C39.9951 18.0148 41.7987 18.3399 43.4925 18.7372C42.984 20.4139 42.3503 22.1667 41.6042 23.9638C41.0589 22.8994 40.493 21.8464 39.9068 20.8053ZM29.5283 10.4065C30.6908 11.7022 31.8552 13.1487 33.0004 14.7182C30.6772 14.6053 28.3502 14.6048 26.0271 14.7167C27.1734 13.1617 28.3477 11.7172 29.5283 10.4065ZM19.0833 20.8231C18.5044 21.8558 17.9491 22.9023 17.4177 23.9616C16.6839 22.1709 16.0558 20.4101 15.543 18.7097C17.2264 18.3223 19.0215 18.0056 20.892 17.7652C20.2659 18.7697 19.6628 19.7894 19.0833 20.8231ZM20.9457 36.317C19.0132 36.0951 17.1911 35.7948 15.5082 35.4178C16.0291 33.6871 16.671 31.8888 17.4207 30.0597C17.9542 31.1198 18.5118 32.1669 19.0932 33.2001C19.691 34.2622 20.3101 35.3026 20.9457 36.317ZM29.598 43.6738C28.4032 42.348 27.2117 40.8812 26.048 39.3036C27.1778 39.3491 28.3294 39.3724 29.5 39.3724C30.7026 39.3724 31.8913 39.3446 33.0614 39.291C31.9125 40.897 30.7526 42.366 29.598 43.6738ZM41.628 29.9663C42.4166 31.8155 43.0813 33.6043 43.6091 35.3054C41.8985 35.707 40.0516 36.0304 38.1055 36.2706C38.7291 35.2536 39.3329 34.224 39.9167 33.1823C40.5103 32.1235 41.0808 31.0512 41.628 29.9663ZM37.7335 31.8869C36.8398 33.484 35.8958 35.0507 34.9031 36.5847C33.1049 36.7157 31.3027 36.7808 29.5 36.7798C27.6639 36.7798 25.878 36.721 24.1582 36.6063C23.1396 35.0759 22.1776 33.5063 21.2743 31.9011C20.3753 30.3044 19.5358 28.6731 18.7572 27.0108C19.5338 25.3481 20.371 23.716 21.267 22.118C22.1626 20.5197 23.1166 18.9571 24.1275 17.4333C25.8821 17.2967 27.6814 17.2256 29.4998 17.2256C31.3265 17.2256 33.1283 17.2974 34.8824 17.4349C35.8831 18.9565 36.8313 20.5139 37.7252 22.1043C38.6241 23.6987 39.4724 25.3228 40.2687 26.974C39.4806 28.6421 38.635 30.2807 37.7335 31.8869ZM42.9329 2.93317C44.9085 4.10531 45.6768 8.83207 44.4355 15.0306C44.3562 15.4261 44.2673 15.8289 44.1705 16.2374C41.7225 15.6561 39.0645 15.2239 36.2815 14.9553C34.6604 12.5804 32.9805 10.4212 31.2942 8.55207C31.7362 8.11382 32.1886 7.68694 32.6512 7.27182C37.0071 3.37249 41.0781 1.83286 42.9329 2.93317ZM29.5 21.5291C32.4097 21.5291 34.7685 23.9557 34.7685 26.9489C34.7685 29.9421 32.4097 32.3686 29.5 32.3686C26.5903 32.3686 24.2315 29.9421 24.2315 26.9489C24.2315 23.9557 26.5903 21.5291 29.5 21.5291Z" fill="#00D8FF"/>
</svg>
